PathFileType	4	(x/y/z)	S05_P20_T22
DataRate	CameraRate	NumFrames	NumMarkers	Units	OrigDataRate	OrigDataStartFrame	OrigNumFrames
240	240	5	50	mm	240	294	391
Frame#	Time	Sternum			R.Acromium			L.Acromium			Top.Head			R.ASIS			L.ASIS			R.PSIS			L.PSIS			R.Great.Tro			L.Great.Tro			R.Iliac.Crest			L.Iliac.Crest			V.Sacral			R.Thigh.Upper.Post			R.Thigh.Lower.Ant			R.Thigh.Lower.Post			R.Thigh.Upper.Ant			R.Knee.Lat			R.Knee.Med			R.Shank.Upper.Post			R.Shank.Lower.Ant			R.Shank.Lower.Post			R.Shank.Upper.Ant			R.Ankle.Lat			R.Ankle.Med			R.Heel.Upper			R.Heel.Med			R.Heel.Lat			R.Toe.Lat			R.Toe.Med			R.Toe.Tip			L.Thigh.Upper.Post			L.Thigh.Lower.Ant			L.Thigh.Lower.Post			L.Thigh.Upper.Ant			L.Knee.Lat			L.Shank.Upper.Post			L.Shank.Lower.Ant			L.Shank.Lower.Post			L.Shank.Upper.Ant			L.Ankle.Lat			L.Ankle.Med			L.Heel.Upper			L.Heel.Med			L.Heel.Lat			L.Toe.Lat			L.Toe.Med			L.Toe.Tip			Cervical.Spine			Back			
		X1	Y1	Z1	X2	Y2	Z2	X3	Y3	Z3	X4	Y4	Z4	X5	Y5	Z5	X6	Y6	Z6	X7	Y7	Z7	X8	Y8	Z8	X9	Y9	Z9	X10	Y10	Z10	X11	Y11	Z11	X12	Y12	Z12	X13	Y13	Z13	X14	Y14	Z14	X15	Y15	Z15	X16	Y16	Z16	X17	Y17	Z17	X18	Y18	Z18	X19	Y19	Z19	X20	Y20	Z20	X21	Y21	Z21	X22	Y22	Z22	X23	Y23	Z23	X24	Y24	Z24	X25	Y25	Z25	X26	Y26	Z26	X27	Y27	Z27	X28	Y28	Z28	X29	Y29	Z29	X30	Y30	Z30	X31	Y31	Z31	X32	Y32	Z32	X33	Y33	Z33	X34	Y34	Z34	X35	Y35	Z35	X36	Y36	Z36	X37	Y37	Z37	X38	Y38	Z38	X39	Y39	Z39	X40	Y40	Z40	X41	Y41	Z41	X42	Y42	Z42	X43	Y43	Z43	X44	Y44	Z44	X45	Y45	Z45	X46	Y46	Z46	X47	Y47	Z47	X48	Y48	Z48	X49	Y49	Z49	X50	Y50	Z50	

294	1.2208	NaN	NaN	NaN	162.59	1530.1	456.54	141.49	1528.7	130.87	138.05	1824.5	278.74	NaN	NaN	NaN	164.87	1010.6	192.5	-35.494	1024.2	358.87	-35.447	1028.3	266.9	91.615	925.75	507.19	81.09	931.24	117.43	76.834	1090.3	481.14	74.345	1087.9	146.27	-47.739	990.92	324.94	210.48	721.48	517.26	281.18	666.23	467.01	225.65	633.22	502.4	261.07	752.55	481.09	228.95	539.15	490.16	NaN	NaN	NaN	21.661	424.18	457.95	18.082	333.01	452.94	-31.62	372.86	436.58	69.421	385.16	473.94	-68.675	277.3	427.91	-38.763	290.53	344.46	-148.64	297.2	360.74	-162.03	268.74	329.17	-168.05	270.93	394.52	-73.952	137.64	452.66	-32.159	123.25	339.95	20.715	88.297	391.68	125.93	693.14	132.15	217.92	635.11	152.38	152.97	603.1	151.06	198.93	722.24	132.42	183.23	517.75	158.63	123.53	316.11	170.92	190.34	259.54	175.11	122.37	245.62	192.1	187.95	328.12	159.65	153.76	110.71	206.15	192.97	130.68	288.71	101.44	65.552	264.01	115.4	41.519	295.51	101.15	38.634	235.92	277.96	37.554	167.55	310.14	55.1	283.5	368.53	65.7	224.43	102.05	1565.8	301.52	-17.924	1293.8	313.58
295	1.225	NaN	NaN	NaN	167.91	1530.9	456.36	146.95	1529.8	130.73	143.66	1825.4	278.95	NaN	NaN	NaN	169.19	1011.4	192.4	-30.726	1025.3	358.81	-30.689	1029.3	266.81	96.816	927.11	507.13	85.288	931.99	117.32	81.761	1091.6	480.83	79.165	1088.8	146.03	-43.011	991.99	324.92	217.98	724.03	516.72	289.13	669.67	466.1	234.17	635.97	501.72	268.02	755.74	480.32	237.89	541.92	489.43	NaN	NaN	NaN	32.479	424.07	457.31	30.188	332.81	452.34	-20.12	371.99	436.06	80.988	385.7	473.14	-55.772	275.85	427.33	-26.266	289.78	343.77	-136.38	294.46	360.4	-149.34	265.77	328.86	-155.21	267.83	394.21	-58.449	136.29	452.02	-16.802	122.84	339.13	36.935	88.787	390.68	128.76	693.63	132.26	220.39	635.01	152.47	155.24	603.42	151.19	201.94	722.29	132.49	184.91	517.84	158.83	124.42	316.41	171.11	191.06	259.56	175.25	123.05	245.89	192.28	188.89	328.18	159.77	153.97	110.85	206.26	193.17	130.66	288.86	101.41	65.634	264.07	115.34	41.607	295.54	101.15	38.742	235.95	278.01	37.555	167.58	310.22	54.932	283.58	368.63	65.48	224.5	107.41	1566.8	301.36	-12.818	1294.9	313.21
296	1.2292	NaN	NaN	NaN	173.22	1531.8	456.19	152.4	1530.9	130.59	149.27	1826.3	279.18	NaN	NaN	NaN	173.58	1012.1	192.27	-25.958	1026.4	358.73	-25.925	1030.3	266.72	101.99	928.46	507.06	89.513	932.73	117.21	86.655	1092.8	480.52	84.024	1089.6	145.81	-38.275	993.05	324.89	225.38	726.58	516.19	296.95	673.08	465.22	242.55	638.71	501.04	274.88	758.89	479.57	246.65	544.69	488.7	NaN	NaN	NaN	43.271	423.76	456.69	42.327	332.43	451.74	-8.6075	370.89	435.54	92.61	386.08	472.34	-42.773	274.16	426.75	-13.661	288.78	343.09	-123.99	291.42	360.03	-136.48	262.48	328.53	-142.22	264.42	393.88	-42.778	134.75	451.39	-1.2153	122.24	338.35	53.353	89.154	389.73	131.59	694.13	132.38	222.84	634.92	152.58	157.49	603.75	151.33	204.94	722.32	132.58	186.56	517.92	159.04	125.3	316.7	171.28	191.8	259.57	175.41	123.72	246.15	192.45	189.82	328.24	159.91	154.17	110.98	206.37	193.37	130.64	289.02	101.39	65.718	264.12	115.28	41.696	295.57	101.16	38.85	235.98	278.05	37.556	167.6	310.3	54.759	283.66	368.72	65.255	224.56	112.77	1567.7	301.2	-7.7138	1296	312.84
297	1.2333	NaN	NaN	NaN	178.52	1532.6	456.03	157.84	1532	130.47	154.86	1827.1	279.45	NaN	NaN	NaN	178.03	1012.9	192.11	-21.188	1027.4	358.64	-21.156	1031.3	266.62	107.13	929.8	507.01	93.767	933.45	117.12	91.515	1094.1	480.23	88.919	1090.4	145.59	-33.531	994.08	324.83	232.67	729.1	515.67	304.65	676.46	464.35	250.8	641.44	500.37	281.65	762.01	478.85	255.22	547.43	487.98	NaN	NaN	NaN	54.035	423.26	456.09	54.498	331.88	451.13	2.9187	369.58	435	104.27	386.31	471.54	-29.679	272.24	426.18	-0.94791	287.55	342.43	-111.45	288.07	359.65	-123.45	258.9	328.17	-129.09	260.72	393.52	-26.941	133.04	450.79	14.598	121.47	337.62	69.962	89.414	388.82	134.42	694.62	132.5	225.28	634.81	152.69	159.73	604.08	151.46	207.93	722.35	132.68	188.19	518.01	159.24	126.18	316.98	171.44	192.56	259.56	175.59	124.4	246.41	192.62	190.76	328.29	160.05	154.38	111.12	206.48	193.57	130.62	289.18	101.37	65.804	264.18	115.23	41.785	295.59	101.16	38.958	236.02	278.1	37.557	167.63	310.39	54.583	283.75	368.82	65.026	224.62	118.11	1568.6	301.05	-2.6102	1297	312.46
298	1.2375	NaN	NaN	NaN	183.81	1533.4	455.87	163.28	1533	130.35	160.44	1828	279.75	NaN	NaN	NaN	182.57	1013.6	191.91	-16.415	1028.5	358.54	-16.38	1032.3	266.52	112.25	931.11	506.96	98.053	934.17	117.03	96.342	1095.3	479.94	93.847	1091.2	145.37	-28.777	995.09	324.76	239.86	731.6	515.17	312.23	679.79	463.5	258.92	644.15	499.72	288.32	765.08	478.15	263.64	550.15	487.26	NaN	NaN	NaN	64.77	422.58	455.5	66.696	331.17	450.53	14.46	368.06	434.46	115.96	386.39	470.75	-16.492	270.12	425.6	11.875	286.09	341.8	-98.784	284.44	359.25	-110.24	255.03	327.79	-115.81	256.73	393.14	-10.942	131.17	450.22	30.634	120.54	336.95	86.752	89.583	387.99	137.24	695.1	132.61	227.71	634.69	152.81	161.95	604.4	151.59	210.92	722.37	132.78	189.8	518.09	159.45	127.05	317.26	171.59	193.33	259.54	175.77	125.07	246.66	192.77	191.69	328.34	160.2	154.58	111.26	206.59	193.75	130.6	289.34	101.36	65.892	264.23	115.18	41.871	295.62	101.17	39.067	236.05	278.14	37.558	167.66	310.47	54.404	283.83	368.92	64.793	224.68	123.45	1569.4	300.9	2.4939	1298	312.08
